# xmcd CD database file
#
# Track frame offsets:
#	150
#	15787
#	32185
#	49230
#	65812
#	83612
#	98382
#	117045
#	135255
#	152565
#	166167
#	184115
#	204397
#
# Disc length: 2937 seconds
#
# Revision: 3
# Processed by: cddbd v1.4b42PL0 Copyright (c) Steve Scherf et al.
# Submitted via: CDex 1.40Beta6
#
DISCID=920b770d
DTITLE=Tchê Garotos - Geração 2000
DYEAR=2000
DGENRE=Country
TTITLE0=Ajoelha e Chora
TTITLE1=Andei, Sonhei
TTITLE2=Nossa Pegada
TTITLE3=El Amor
TTITLE4=Chacoaiando as Mondongueira
TTITLE5=Não Sou Perfeito
TTITLE6=Um Sonho de Verão
TTITLE7=Bem Gauchão
TTITLE8=Decisão
TTITLE9=Embalo da Festança
TTITLE10=Amor de Infância
TTITLE11=Melô do Ex-Marido
TTITLE12=Tio Laerte no Bailão
EXTD=
EXTT0=
EXTT1=
EXTT2=
EXTT3=
EXTT4=
EXTT5=
EXTT6=
EXTT7=
EXTT8=
EXTT9=
EXTT10=
EXTT11=
EXTT12=
PLAYORDER=
